<?xml version="1.0" encoding="utf-8"?>
<svg width="48px" height="48px" viewBox="0 0 48 48" version="1.1" xmlns:xlink="http://www.w3.org/1999/xlink" xmlns="http://www.w3.org/2000/svg">
  <g id="info_white_24dp">
    <path d="M0 0L48 0L48 48L0 48L0 0Z" id="Shape" fill="none" fill-rule="evenodd" stroke="none" />
    <path d="M24 4C12.96 4 4 12.96 4 24C4 35.04 12.96 44 24 44C35.04 44 44 35.04 44 24C44 12.96 35.04 4 24 4L24 4ZM26 34L22 34L22 22L26 22L26 34L26 34ZM26 18L22 18L22 14L26 14L26 18L26 18Z" id="Shape" fill="#BF0000" fill-rule="evenodd" stroke="none" />
  </g>
</svg>