<?xml version="1.0" encoding="utf-8"?>
<svg width="100px" height="100px" viewBox="0 0 100 100" version="1.1" xmlns:xlink="http://www.w3.org/1999/xlink" xmlns="http://www.w3.org/2000/svg">
  <g id="toggle_on_black_48dp">
    <path d="M0 0L100 0L100 100L0 100L0 0Z" id="Shape" fill="none" stroke="none" />
    <path d="M70.833 29.1665L29.1663 29.1665C17.6663 29.1665 8.33301 38.4998 8.33301 49.9998C8.33301 61.4998 17.6663 70.8332 29.1663 70.8332L70.833 70.8332C82.333 70.8332 91.6663 61.4998 91.6663 49.9998C91.6663 38.4998 82.333 29.1665 70.833 29.1665L70.833 29.1665ZM70.833 62.4998C63.9163 62.4998 58.333 56.9165 58.333 49.9998C58.333 43.0832 63.9163 37.4998 70.833 37.4998C77.7497 37.4998 83.333 43.0832 83.333 49.9998C83.333 56.9165 77.7497 62.4998 70.833 62.4998L70.833 62.4998Z" id="Shape" fill="#000000" fill-rule="evenodd" stroke="none" />
  </g>
</svg>