<?xml version="1.0" encoding="utf-8"?>
<svg width="100px" height="100px" viewBox="0 0 100 100" version="1.1" xmlns:xlink="http://www.w3.org/1999/xlink" xmlns="http://www.w3.org/2000/svg">
  <g id="toggle_off_white_48dp">
    <path d="M0 0L100 0L100 100L0 100L0 0Z" id="Shape" fill="none" stroke="none" />
    <path d="M70.8333 29.1665L29.1666 29.1665C17.6666 29.1665 8.33325 38.4998 8.33325 49.9998C8.33325 61.4998 17.6666 70.8332 29.1666 70.8332L70.8333 70.8332C82.3333 70.8332 91.6666 61.4998 91.6666 49.9998C91.6666 38.4998 82.3333 29.1665 70.8333 29.1665L70.8333 29.1665ZM29.1665 62.4998C22.2498 62.4998 16.6665 56.9165 16.6665 49.9998C16.6665 43.0832 22.2498 37.4998 29.1665 37.4998C36.0832 37.4998 41.6665 43.0832 41.6665 49.9998C41.6665 56.9165 36.0832 62.4998 29.1665 62.4998L29.1665 62.4998Z" id="Shape" fill="#FFFFFF" fill-rule="evenodd" stroke="none" />
  </g>
</svg>